:version 1.10
:name ASF
:units
  mass 1
  length 1
  angle deg
:documentation
  ASF file generated by Kaydara
:root
  axis xyz
  order  tx ty tz rx ry rz
  position 0 0 0
  orientation 0 0 0
:bonedata
  begin
    id 1
    name RightUpLegDummy
    direction -0.718183 -0.695806 0.00816078
    length 4.904
    axis 0 0 0 xyz
  end
  begin
    id 2
    name RightUpLeg
    direction -0.00334265 -0.999142 0.0412837
    length 17.4976
    axis -0.59612 0.00940841 -0.192072 xyz
    dof rx ry rz
  end
  begin
    id 3
    name RightLeg
    direction 0.000365068 -0.988824 -0.149089
    length 16.5821
    axis 6.58657 0.0604092 -0.318554 xyz
    dof rx ry rz
  end
  begin
    id 4
    name RightFoot
    direction 0.00079069 -0.460991 0.887405
    length 3.77069
    axis 0.000105557 -0.120464 -0.188919 xyz
    dof rx ry rz
  end
  begin
    id 5
    name RightToes
    direction 0.00124768 -0.014065 0.9999
    length 3.85082
    axis 0.00053932 0.542178 -0.142707 xyz
    dof rx ry rz
  end
  begin
    id 6
    name SpineDummy
    direction 8.3039e-015 1 4.58682e-016
    length 4.6813
    axis 0 0 0 xyz
  end
  begin
    id 7
    name Spine
    direction 4.12799e-006 0.999988 0.00494944
    length 10.1015
    axis -0.00149944 0.000129667 -0.000235877 xyz
    dof rx ry rz
  end
  begin
    id 8
    name Spine1
    direction 0 0 0
    length 0
    axis -0.00160567 0.000129431 -0.000308381 xyz
    dof rx ry rz
  end
  begin
    id 9
    name HEadDummy
    direction 5.38513e-006 0.999999 0.00127044
    length 3.43865
    axis -0.00160567 0.000129431 -0.000308381 xyz
  end
  begin
    id 10
    name HEad
    direction -0.0226495 0.980942 0.192974
    length 5.12695
    axis -0.00160642 -0.114462 -0.000307946 xyz
    dof rx ry rz
  end
  begin
    id 11
    name LeftShoulder1Dummy
    direction 0.99889 -0.0402564 -0.0244456
    length 3.5433
    axis -0.00160567 0.000129431 -0.000308381 xyz
  end
  begin
    id 12
    name LeftShoulder1
    direction 0.999464 -0.00142945 0.0326977
    length 4.05031
    axis 0.393425 -0.0796525 -0.0507861 xyz
    dof rx ry rz
  end
  begin
    id 13
    name LeftArm
    direction 0.998564 -0.000899612 -0.053557
    length 10.3537
    axis -22.9476 0.126974 0.960871 xyz
    dof rx ry rz
  end
  begin
    id 14
    name LeftForeArm
    direction 0.998903 0.00865904 0.0460121
    length 8.70632
    axis -9.91856 -0.0656997 -0.178106 xyz
    dof rx ry rz
  end
  begin
    id 15
    name LeftHand
    direction 0.992938 -0.0411687 0.11126
    length 5.32135
    axis -0.00981066 -0.00340928 0.18486 xyz
    dof rx ry rz
  end
  begin
    id 16
    name RightShoulderDummy
    direction -0.998891 -0.0402456 -0.0244411
    length 3.5433
    axis -0.00160567 0.000129431 -0.000308381 xyz
  end
  begin
    id 17
    name RightShoulder
    direction -0.999353 -0.00388479 0.0357579
    length 4.05031
    axis 1.48787 0.256014 0.157284 xyz
    dof rx ry rz
  end
  begin
    id 18
    name RightArm
    direction -0.998583 -0.000660455 -0.0532032
    length 10.3947
    axis -22.4211 -0.109147 -0.943573 xyz
    dof rx ry rz
  end
  begin
    id 19
    name RightForeArm
    direction -0.998898 0.00868588 0.0461311
    length 8.68355
    axis -9.92343 0.0658342 0.178556 xyz
    dof rx ry rz
  end
  begin
    id 20
    name RightHand
    direction -0.992843 -0.0414545 0.112004
    length 5.28593
    axis -0.00982288 0.00332907 -0.185539 xyz
    dof rx ry rz
  end
  begin
    id 21
    name LeftUpLegDummy
    direction 0.718183 -0.695806 0.00816078
    length 4.904
    axis 0 0 0 xyz
  end
  begin
    id 22
    name LeftUpLeg
    direction 0.00445374 -0.999139 0.0412407
    length 17.4976
    axis -0.593655 -0.0138231 0.255969 xyz
    dof rx ry rz
  end
  begin
    id 23
    name LeftLeg
    direction -0.00154847 -0.988829 -0.149046
    length 16.5821
    axis 6.5841 -0.0555156 0.250722 xyz
    dof rx ry rz
  end
  begin
    id 24
    name LeftFoot
    direction -0.00417678 -0.460985 0.887398
    length 3.77069
    axis 5.53694e-005 4.88088e-005 -0.000136194 xyz
    dof rx ry rz
  end
  begin
    id 25
    name LeftToes
    direction 0.00818061 -0.00485256 0.999955
    length 3.85048
    axis 6.41179e-005 4.88477e-005 -0.000136145 xyz
    dof rx ry rz
  end
:hierarchy
  begin
    root RightUpLegDummy SpineDummy LeftUpLegDummy
    RightUpLegDummy RightUpLeg
    RightUpLeg RightLeg
    RightLeg RightFoot
    RightFoot RightToes
    SpineDummy Spine
    Spine Spine1
    Spine1 HEadDummy LeftShoulder1Dummy RightShoulderDummy
    HEadDummy HEad
    LeftShoulder1Dummy LeftShoulder1
    LeftShoulder1 LeftArm
    LeftArm LeftForeArm
    LeftForeArm LeftHand
    RightShoulderDummy RightShoulder
    RightShoulder RightArm
    RightArm RightForeArm
    RightForeArm RightHand
    LeftUpLegDummy LeftUpLeg
    LeftUpLeg LeftLeg
    LeftLeg LeftFoot
    LeftFoot LeftToes
  end

:SAMPLES-PER-SECOND 30
:FULLY-SPECIFIED
:DEGREES
134
root  6.49564 38.9668 1.79003 -88.1856 86.0102 -86.6348
RightUpLeg  8.19209 1.27355 8.1186
RightLeg  9.65321 10.6785 0.916806
RightFoot  -13.3162 -0.0121535 -6.53204
RightToes  -6.40286e-010 -1.59028e-015 9.93923e-017
Spine  -7.99259 3.91775 14.0114
Spine1  14.5295 5.1611 -7.49463
HEad  -9.62344 -4.39156 0.436616
LeftShoulder1  9.93923e-017 0 1.22299e-017
LeftArm  -1.36912 54.0267 -67.8335
LeftForeArm  -9.66915 -7.90367 -5.30394
LeftHand  0.975387 6.84969 -5.13023
RightShoulder  1.98785e-016 -4.96962e-017 1.55301e-017
RightArm  18.1365 -26.9305 83.4656
RightForeArm  -44.3291 29.5891 -26.4893
RightHand  1.12202 -9.97662 -6.36119
LeftUpLeg  -23.0835 -0.0782515 3.33109
LeftLeg  -3.34684 -7.35369 -0.855925
LeftFoot  6.21438 0.918328 -5.21759
LeftToes  8.73142e-011 -6.07963e-011 6.03181e-012
135
root  8.10638 38.7264 1.67614 -77.585 85.6435 -76.7366
RightUpLeg  9.62738 0.878712 7.72003
RightLeg  10.6197 12.1831 1.31782
RightFoot  -14.3256 -0.0598308 -5.49719
RightToes  -6.40286e-010 -1.59028e-015 9.93923e-017
Spine  -9.5405 4.40672 14.7946
Spine1  15.3193 5.65637 -8.30705
HEad  -10.0141 -4.30945 0.692305
LeftShoulder1  9.93923e-017 0 1.22299e-017
LeftArm  -5.28738 54.1452 -67.6993
LeftForeArm  -6.41929 -5.49504 -5.77258
LeftHand  0.997773 7.08468 -5.43366
RightShoulder  1.98785e-016 -4.96962e-017 1.55301e-017
RightArm  20.4513 -25.7271 83.8265
RightForeArm  -45.0677 27.9474 -25.2835
RightHand  1.1429 -10.0108 -6.84246
LeftUpLeg  -24.3674 0.0701325 3.53124
LeftLeg  -6.70265 -4.72551 -1.58646
LeftFoot  4.28139 1.00391 -6.35044
LeftToes  8.73142e-011 -6.07963e-011 6.03181e-012
136
root  9.77167 38.5078 1.55853 -68.7894 85.849 -68.5419
RightUpLeg  10.9167 0.451803 6.68292
RightLeg  12.1802 13.7227 1.48917
RightFoot  -14.6119 -0.0565813 -4.26958
RightToes  -6.40286e-010 -1.59028e-015 9.93923e-017
Spine  -10.6736 4.65016 14.6322
Spine1  15.8191 6.09515 -9.09448
HEad  -10.3031 -4.23873 1.15802
LeftShoulder1  9.93923e-017 0 1.22299e-017
LeftArm  -7.66061 53.8668 -67.7786
LeftForeArm  -4.80274 -3.89567 -5.98625
LeftHand  1.02796 7.42192 -5.97841
RightShoulder  1.98785e-016 -4.96962e-017 1.55301e-017
RightArm  22.327 -25.7573 84.7265
RightForeArm  -46.1543 26.0019 -23.9018
RightHand  1.16422 -10.1413 -6.87995
LeftUpLeg  -24.8818 -0.2928 2.98297
LeftLeg  -6.67074 -2.62429 -1.95349
LeftFoot  4.16745 0.976955 -6.23566
LeftToes  8.73142e-011 -6.07963e-011 6.03181e-012
137
root  11.5365 38.3257 1.43116 -49.2438 86.389 -49.1844
RightUpLeg  12.2883 0.332177 4.76552
RightLeg  14.5646 14.9922 1.69352
RightFoot  -14.304 -0.0227701 -2.28173
RightToes  -6.40286e-010 -1.59028e-015 9.93923e-017
Spine  -11.4776 4.90676 13.4858
Spine1  16.3415 6.74229 -9.86778
HEad  -10.3103 -4.32803 1.72221
LeftShoulder1  9.93923e-017 0 1.22299e-017
LeftArm  -8.45692 53.3846 -68.0417
LeftForeArm  -4.92747 -3.40365 -6.09258
LeftHand  1.04691 7.65274 -6.29891
RightShoulder  1.98785e-016 -4.96962e-017 1.55301e-017
RightArm  23.4128 -27.3075 85.9114
RightForeArm  -47.7315 24.1884 -22.6353
RightHand  1.14845 -10.14 -6.41499
LeftUpLeg  -23.7242 -1.18926 1.76123
LeftLeg  -5.71046 -1.40794 -1.72749
LeftFoot  8.02559 0.736532 -3.84713
LeftToes  8.73142e-011 -6.07963e-011 6.03181e-012
